# xmcd
#
# Track frame offsets:
#  150
#  12286
#  28055
#  42939
#  58296
#  75609
#  90889
#  108015
#  120865
#  133953
#  147713
#  160536
#  179123
#  189875
#  202956
#  215614
#
# Disc length: 2887 seconds
#
# Revision: 0
# Processed by: cddbd v1.5.2PL0 Copyright (c) Steve Scherf et al.
# Submitted via: AltoMP3_Maker 3.0
#
DISCID=d70b4510
DTITLE=Various Artist - Hillcrest 64
DYEAR=1900
DGENRE=
TTITLE0=Oh How I Miss You Tonight
TTITLE1=Only When You're Lonely
TTITLE2=Hold On
TTITLE3=Believe
TTITLE4=River Valley Express
TTITLE5=Do It All Over Again
TTITLE6=Changes
TTITLE7=Reel Me In
TTITLE8=They Call Me The Breeze
TTITLE9=Hurt All Over
TTITLE10=It's A Miracle
TTITLE11=Desinated Love
TTITLE12=Where Does The Good Times Go
TTITLE13=The Girls Alright
TTITLE14=I Still Don't Sound Like Merle
TTITLE15=CD Info
EXTD=
EXTT0=
EXTT1=
EXTT2=
EXTT3=
EXTT4=
EXTT5=
EXTT6=
EXTT7=
EXTT8=
EXTT9=
EXTT10=
EXTT11=
EXTT12=
EXTT13=
EXTT14=
EXTT15=
PLAYORDER=
